<?xml version="1.0" standalone="no"?>
<!DOCTYPE svg PUBLIC "-//W3C//DTD SVG 20010904//EN"
 "http://www.w3.org/TR/2001/REC-SVG-20010904/DTD/svg10.dtd">
<svg version="1.0" xmlns="http://www.w3.org/2000/svg"
 width="1000.000000pt" height="1000.000000pt" viewBox="0 0 1000.000000 1000.000000"
 preserveAspectRatio="xMidYMid meet">
<metadata>
Created by potrace 1.14, written by Peter Selinger 2001-2017
</metadata>
<g transform="translate(0.000000,1000.000000) scale(0.100000,-0.100000)"
fill="#000000" stroke="none">
<path d="M3869 9536 c-28 -10 -216 -130 -264 -169 -9 -7 -136 -94 -373 -255
-46 -31 -91 -61 -100 -67 -10 -5 -19 -13 -22 -16 -3 -3 -48 -34 -100 -69 -52
-35 -97 -66 -100 -69 -3 -3 -13 -10 -22 -16 -10 -5 -61 -40 -115 -77 -54 -37
-219 -150 -368 -252 -148 -101 -275 -189 -282 -195 -7 -6 -17 -11 -23 -11 -5
0 -10 -4 -10 -9 0 -5 -9 -13 -20 -16 -11 -3 -26 -12 -32 -19 -7 -6 -33 -25
-58 -42 -40 -27 -211 -144 -360 -247 -30 -20 -93 -63 -140 -94 -47 -32 -87
-60 -90 -63 -3 -3 -28 -20 -56 -38 -65 -41 -100 -81 -129 -146 -45 -102 -17
-233 67 -313 27 -26 458 -291 618 -381 25 -14 47 -28 50 -31 3 -3 15 -12 28
-18 47 -27 66 -38 76 -46 23 -17 204 -121 250 -144 100 -50 233 -26 314 56 31
30 185 297 388 670 16 31 44 81 61 111 114 202 163 294 163 301 0 5 5 9 10 9
6 0 10 5 10 10 0 6 31 66 69 133 37 67 82 147 98 177 16 30 50 91 75 135 71
126 99 176 128 230 15 28 36 66 47 85 11 19 56 100 100 180 44 80 93 168 108
195 154 274 178 322 183 363 7 66 -37 135 -96 148 -15 3 -32 7 -37 9 -6 1 -27
-3 -46 -9z"/>
<path d="M4889 9530 c-98 -34 -134 -71 -225 -235 -15 -27 -36 -66 -47 -85 -11
-19 -32 -57 -47 -85 -15 -27 -40 -72 -55 -100 -89 -159 -172 -307 -198 -355
-16 -30 -50 -91 -75 -135 -25 -44 -57 -102 -72 -130 -15 -27 -36 -66 -47 -85
-11 -19 -147 -264 -303 -545 -156 -280 -294 -527 -306 -547 -13 -21 -24 -40
-24 -44 0 -5 -125 -234 -150 -274 -28 -45 -59 -111 -65 -141 -30 -137 47 -279
178 -328 l58 -21 1486 0 c1472 0 1521 1 1573 31 8 5 24 13 35 18 30 13 85 80
107 131 38 86 13 224 -54 308 -6 6 -7 12 -3 12 5 0 1 8 -7 18 -8 9 -48 78 -89
152 -40 74 -79 144 -86 155 -7 11 -15 27 -19 35 -4 8 -39 71 -77 140 -39 69
-80 143 -92 165 -61 110 -891 1605 -911 1640 -12 22 -35 65 -51 95 -65 125
-145 201 -227 216 -73 13 -158 10 -207 -6z"/>
<path d="M6068 9539 c-15 -4 -29 -5 -31 -3 -2 2 -21 -11 -41 -31 -30 -28 -38
-44 -43 -84 -6 -52 6 -87 69 -194 16 -27 47 -83 70 -125 22 -42 50 -92 61
-112 11 -19 265 -476 565 -1015 299 -539 552 -991 560 -1005 9 -14 17 -27 17
-30 2 -14 41 -80 69 -115 41 -53 52 -62 115 -92 46 -22 63 -25 126 -21 85 6
96 11 505 258 291 176 450 272 516 310 110 64 161 122 184 209 25 95 -15 221
-89 281 -51 42 -692 480 -701 480 -5 0 -10 4 -12 8 -1 4 -75 57 -163 117 -88
60 -196 133 -240 163 -44 31 -107 74 -140 96 -33 23 -62 43 -65 46 -3 3 -81
57 -175 119 -93 63 -172 117 -175 120 -3 3 -75 53 -160 110 -85 58 -156 108
-158 113 -2 4 -10 8 -18 8 -8 0 -14 3 -14 8 0 4 -9 12 -20 17 -25 12 -312 208
-361 247 -20 15 -41 28 -47 28 -6 0 -12 3 -14 8 -6 14 -113 79 -138 84 -14 2
-37 1 -52 -3z"/>
<path d="M929 6765 c-59 -19 -128 -80 -159 -141 l-25 -49 -3 -1140 c-2 -796 0
-1151 8 -1177 23 -80 133 -121 202 -75 38 25 80 88 835 1250 62 94 116 177
121 182 5 6 11 15 13 20 4 10 105 165 140 217 74 107 59 267 -33 359 -34 34
-198 139 -217 139 -5 0 -11 4 -13 8 -2 4 -77 52 -168 106 -91 54 -230 138
-310 187 -80 49 -152 92 -160 95 -8 3 -24 10 -35 16 -32 18 -145 19 -196 3z"/>
<path d="M8896 6772 c-15 -3 -169 -93 -397 -231 -15 -9 -68 -41 -118 -71 -51
-30 -104 -63 -119 -72 -15 -10 -34 -21 -42 -25 -70 -36 -220 -134 -248 -163
-95 -98 -108 -244 -31 -358 16 -23 29 -45 29 -47 0 -2 46 -74 103 -159 98
-150 134 -205 392 -601 65 -99 161 -246 214 -327 53 -81 152 -233 220 -338
116 -176 127 -191 168 -206 37 -14 49 -15 88 -4 52 15 91 55 100 103 3 18 5
545 3 1172 l-3 1140 -28 48 c-70 116 -194 168 -331 139z"/>
<path d="M3675 5849 c-67 -9 -101 -24 -151 -65 -51 -41 -92 -120 -99 -189 -5
-58 15 -140 49 -194 13 -20 37 -62 55 -93 17 -32 109 -194 205 -360 95 -167
184 -323 198 -348 14 -25 58 -101 97 -169 39 -68 71 -128 71 -133 0 -4 4 -8 8
-8 4 0 13 -12 19 -27 7 -16 25 -50 42 -78 16 -27 38 -66 49 -85 45 -82 65
-116 72 -125 4 -5 22 -37 40 -70 39 -70 380 -669 504 -884 74 -129 221 -148
304 -41 15 19 380 653 564 980 14 25 52 90 83 145 32 55 66 116 77 135 11 19
46 80 78 135 31 55 68 120 82 145 14 25 42 73 62 107 20 34 36 66 36 72 0 6 5
11 10 11 6 0 10 4 10 10 0 5 14 33 31 62 18 29 39 67 49 83 9 17 28 50 42 75
14 25 83 146 154 270 71 124 136 248 146 275 19 55 17 150 -4 188 -7 12 -11
25 -10 28 1 4 -16 27 -37 51 -41 47 -113 88 -166 95 -53 7 -2615 9 -2670 2z"/>
<path d="M2548 5437 c-80 -26 -123 -69 -238 -243 -60 -91 -110 -168 -110 -170
0 -3 -5 -10 -11 -17 -6 -7 -69 -102 -141 -212 -72 -110 -188 -285 -256 -390
-136 -206 -298 -454 -397 -605 -133 -203 -325 -495 -332 -505 -22 -26 -91
-144 -103 -174 -28 -71 -9 -193 43 -263 42 -56 130 -104 208 -112 68 -7 155
-18 179 -21 14 -2 52 -7 85 -10 33 -3 71 -8 85 -10 14 -2 50 -7 80 -10 103
-11 135 -15 170 -20 19 -3 60 -7 90 -10 30 -3 66 -7 80 -10 14 -2 50 -6 80
-10 30 -3 71 -8 90 -10 19 -2 60 -7 90 -11 30 -3 69 -7 85 -9 17 -2 53 -7 80
-10 28 -3 61 -7 75 -10 14 -2 54 -6 90 -9 36 -4 76 -8 90 -10 14 -3 50 -7 81
-11 31 -3 65 -7 75 -9 11 -2 51 -7 89 -11 39 -4 77 -8 86 -10 8 -2 49 -6 90
-10 41 -3 81 -8 89 -10 8 -2 45 -6 82 -10 37 -3 77 -8 90 -10 13 -2 48 -6 79
-10 31 -3 65 -7 75 -9 18 -3 110 -14 194 -22 36 -3 105 -12 150 -19 14 -2 57
-6 95 -10 39 -4 78 -9 87 -10 52 -10 162 -20 223 -20 57 0 76 5 101 24 48 35
73 87 70 146 -2 44 -17 76 -126 265 -68 118 -134 235 -148 260 -14 25 -36 62
-49 82 -12 21 -23 39 -23 42 0 2 -58 106 -130 230 -71 124 -130 228 -130 232
0 3 -13 25 -30 49 -16 24 -30 46 -30 49 0 3 -31 58 -68 123 -38 65 -72 125
-75 133 -4 8 -16 29 -26 45 -11 17 -29 47 -40 67 -11 20 -26 47 -33 60 -7 13
-22 39 -34 58 -11 19 -45 78 -74 130 -29 52 -68 120 -85 150 -73 125 -150 259
-183 320 -19 36 -43 76 -53 89 -11 13 -19 28 -19 32 0 5 -18 37 -39 73 -22 35
-54 90 -71 122 -29 55 -47 85 -93 160 -54 87 -201 135 -309 101z"/>
<path d="M7295 5436 c-85 -27 -123 -57 -183 -149 -18 -26 -32 -50 -32 -52 0
-3 -53 -98 -119 -212 -65 -115 -183 -323 -263 -463 -80 -140 -156 -273 -169
-295 -12 -22 -33 -60 -47 -85 -13 -25 -27 -49 -32 -55 -4 -5 -19 -30 -32 -55
-14 -25 -89 -157 -168 -295 -79 -137 -157 -275 -173 -305 -17 -30 -67 -118
-112 -195 -44 -77 -84 -147 -88 -155 -4 -8 -13 -24 -20 -35 -7 -11 -44 -76
-82 -143 -39 -68 -85 -149 -103 -180 -71 -125 -85 -157 -85 -200 0 -24 6 -55
14 -70 31 -59 103 -103 161 -97 18 2 60 6 93 10 33 3 94 10 135 15 41 5 100
12 130 15 30 3 69 8 85 10 17 2 53 7 80 10 28 3 66 7 85 10 38 5 97 12 175 20
28 3 66 8 85 10 83 11 256 31 345 40 28 3 61 8 75 10 14 2 52 7 86 10 33 3 71
7 85 9 13 3 51 7 84 11 33 4 74 8 90 11 30 4 88 10 175 20 25 2 79 9 120 14
41 5 100 12 130 15 30 3 66 8 80 10 14 2 50 6 80 10 30 3 71 8 90 10 19 3 60
8 90 11 99 10 134 14 210 24 41 5 100 12 130 15 30 3 66 8 80 10 14 2 50 6 80
10 213 25 228 29 297 94 55 50 87 126 87 205 0 80 -21 121 -199 391 -116 177
-198 302 -245 375 -5 8 -32 49 -59 90 -27 41 -171 262 -320 490 -149 228 -274
420 -279 425 -4 6 -23 35 -42 65 -19 30 -37 57 -40 60 -4 3 -9 12 -13 20 -10
24 -235 362 -269 404 -57 71 -191 110 -283 82z"/>
<path d="M1501 2119 c-50 -15 -96 -50 -135 -100 -75 -97 -75 -229 0 -328 41
-55 71 -72 224 -129 74 -28 185 -69 245 -92 61 -23 115 -43 120 -44 6 -2 17
-6 25 -9 8 -3 78 -29 155 -57 77 -28 149 -55 160 -60 11 -5 43 -17 70 -26 28
-9 61 -21 75 -27 14 -5 30 -11 35 -13 19 -5 450 -165 470 -174 20 -9 96 -38
230 -86 39 -14 79 -29 90 -34 11 -5 108 -41 215 -80 184 -68 551 -204 865
-321 223 -83 236 -87 274 -78 41 9 78 44 89 84 5 17 8 255 7 530 l-1 500 -28
58 c-46 93 -127 148 -237 161 -30 4 -65 8 -79 10 -14 3 -52 7 -85 11 -33 3
-96 10 -140 16 -44 5 -96 12 -115 14 -19 2 -57 7 -85 10 -158 16 -192 20 -245
30 -14 2 -56 7 -95 10 -38 3 -122 13 -185 20 -141 18 -181 23 -245 30 -27 3
-63 7 -80 10 -29 3 -100 13 -160 20 -16 2 -61 7 -100 10 -38 4 -78 9 -88 11
-10 2 -48 6 -85 10 -36 3 -74 7 -83 9 -10 2 -46 6 -81 10 -35 3 -74 8 -88 10
-31 5 -88 12 -160 20 -73 8 -121 14 -172 20 -46 6 -61 8 -208 25 -52 6 -108
13 -125 16 -73 11 -213 13 -244 3z"/>
<path d="M8348 2124 c-2 -1 -30 -5 -63 -8 -57 -6 -190 -21 -265 -31 -19 -2
-60 -7 -90 -10 -30 -4 -66 -8 -80 -10 -14 -2 -54 -6 -90 -10 -36 -4 -76 -8
-90 -10 -14 -2 -50 -7 -80 -10 -30 -3 -66 -8 -80 -10 -14 -2 -54 -7 -90 -10
-36 -4 -72 -8 -80 -10 -8 -1 -46 -6 -85 -9 -38 -4 -81 -9 -95 -11 -29 -5 -102
-13 -175 -20 -27 -3 -66 -7 -85 -10 -19 -2 -55 -7 -80 -10 -25 -3 -61 -7 -80
-10 -19 -2 -60 -7 -90 -10 -30 -3 -71 -8 -90 -10 -19 -2 -59 -7 -89 -11 -30
-3 -61 -7 -70 -9 -9 -1 -45 -6 -81 -9 -36 -4 -78 -9 -95 -11 -16 -2 -59 -6
-95 -10 -36 -4 -72 -8 -80 -10 -8 -2 -44 -7 -80 -10 -36 -4 -76 -8 -90 -10
-14 -2 -54 -7 -90 -10 -36 -3 -76 -8 -90 -10 -14 -2 -50 -7 -80 -10 -53 -6
-82 -10 -126 -19 -73 -15 -150 -83 -187 -165 -20 -44 -21 -64 -21 -562 -1
-550 -1 -544 48 -581 42 -31 80 -29 189 12 107 40 573 213 962 357 406 150
694 257 980 364 105 39 195 72 200 73 6 2 17 6 25 9 8 3 164 61 345 127 182
67 344 128 360 135 17 7 48 18 70 25 152 47 234 154 223 293 -13 152 -134 261
-286 256 -28 -1 -53 -3 -54 -5z"/>
</g>
</svg>
